<svg width="161" height="38" viewBox="0 0 161 38" fill="none" xmlns="http://www.w3.org/2000/svg">
<path d="M19.32 18.68C19.64 18.68 19.92 18.68 20.24 18.72C18.68 20.8 16.96 22.08 15.4 22.24C14.12 22.36 13.12 21.8 12.44 20.52C14.56 19.32 16.96 18.68 19.32 18.68ZM25.96 21.88C26.8 23.68 26.24 26.6 24.52 29.32C22.52 32.52 18.52 35.96 13.44 35.96C12.36 35.96 11.28 35.8 10.2 35.48C0.48 32.68 1.16 24.52 3.28 12.4C4.48 5.64 10.88 2.56 16.28 2.56C19.24 2.56 21.68 3.48 22.8 5.04C24.84 7.92 23.48 13.6 21 17.6C20.44 17.56 19.88 17.52 19.32 17.52C16.8 17.52 14.24 18.2 12 19.44C11.08 16.72 11.36 13.08 11.36 13.04C11.4 12.72 11.2 12.44 10.88 12.4C10.6 12.36 10.32 12.52 10.24 12.84L7.4 23.52C7.32 23.8 7.48 24.08 7.72 24.2C7.96 24.32 8.28 24.28 8.44 24.04C9.28 22.92 10.28 21.96 11.44 21.16C12.48 23 13.96 23.4 15.04 23.4C15.2 23.4 15.36 23.4 15.52 23.4C17.52 23.2 19.72 21.56 21.52 18.88C23.68 19.32 25.2 20.4 25.96 21.88ZM48.1897 8.88C49.3097 14.16 46.9097 24.92 42.1097 30.88C39.9897 33.52 37.7497 34.84 35.3897 34.84C34.0697 34.84 32.7497 34.4 31.4297 33.6C26.8297 30.76 27.0297 25.36 28.0297 21.36C30.1097 12.84 37.4697 3.48 42.3897 3.12C42.3897 3.12 42.4297 3.12 42.5497 3.12C43.5497 3.12 46.9897 3.52 48.1897 8.88ZM38.6297 23.44L39.3897 16.84C39.4297 16.52 39.1897 16.2 38.8697 16.16C38.5497 16.12 38.2697 16.36 38.2297 16.68L37.4697 23.32C37.4297 23.64 37.6297 23.92 37.9497 23.96C37.9897 23.96 38.0297 23.96 38.0297 23.96C38.3097 23.96 38.5897 23.76 38.6297 23.44ZM82.4228 18.28C83.1828 25.76 81.7828 33.72 76.9828 34.68C76.4628 34.8 76.0228 34.84 75.5828 34.84C74.3028 34.84 73.3428 34.44 72.5828 33.56C70.5428 31.28 70.5828 26.36 71.1828 22.64C71.5828 20.08 72.0228 17.92 72.0228 17.92C72.0628 17.6 71.8628 17.32 71.5428 17.24C71.2628 17.2 70.9428 17.4 70.9028 17.68C70.8628 17.76 70.5028 19.8 70.0228 22.44C68.9428 28.08 67.4228 30.24 66.5828 30.32C66.2228 30.36 64.7028 29.92 61.8228 24.36C60.8628 22.52 60.2228 21.08 60.1828 21.04C60.0228 20.76 59.6628 20.68 59.3828 20.8C59.1428 20.96 59.0228 21.28 59.1428 21.56C59.1428 21.64 59.9428 23.04 60.7828 24.88C62.5028 28.56 62.8628 31.48 62.1428 33.12C61.8228 33.8 61.3028 34.24 60.5428 34.52C58.8228 35.12 56.5828 33.92 54.5428 31.36C51.0228 26.92 48.1028 18.32 50.0228 9.88C50.9028 5.96 52.7828 3.88 55.3828 3.88C59.7828 3.88 65.5028 9.96 65.7028 16.76C65.7028 17.08 65.9028 17.36 66.3028 17.36C66.3028 17.36 66.8628 17.4 66.8628 16.76C66.8628 16.64 67.0628 2.92 74.7028 2.64C74.7028 2.64 74.7428 2.64 74.7828 2.64C78.5828 2.64 81.6628 10.6 82.4228 18.28ZM116.485 18.28C117.245 25.76 115.845 33.72 111.045 34.68C110.525 34.8 110.085 34.84 109.645 34.84C108.365 34.84 107.405 34.44 106.645 33.56C104.605 31.28 104.645 26.36 105.245 22.64C105.645 20.08 106.085 17.92 106.085 17.92C106.125 17.6 105.925 17.32 105.605 17.24C105.325 17.2 105.005 17.4 104.965 17.68C104.925 17.76 104.565 19.8 104.085 22.44C103.005 28.08 101.485 30.24 100.645 30.32C100.285 30.36 98.7653 29.92 95.8853 24.36C94.9253 22.52 94.2853 21.08 94.2453 21.04C94.0853 20.76 93.7253 20.68 93.4453 20.8C93.2053 20.96 93.0853 21.28 93.2053 21.56C93.2053 21.64 94.0053 23.04 94.8453 24.88C96.5653 28.56 96.9253 31.48 96.2053 33.12C95.8853 33.8 95.3653 34.24 94.6053 34.52C92.8853 35.12 90.6453 33.92 88.6053 31.36C85.0853 26.92 82.1653 18.32 84.0853 9.88C84.9653 5.96 86.8453 3.88 89.4453 3.88C93.8453 3.88 99.5653 9.96 99.7653 16.76C99.7653 17.08 99.9653 17.36 100.365 17.36C100.365 17.36 100.925 17.4 100.925 16.76C100.925 16.64 101.125 2.92 108.765 2.64C108.765 2.64 108.805 2.64 108.845 2.64C112.645 2.64 115.725 10.6 116.485 18.28ZM132.299 3.44C133.019 5 133.099 6.84 132.579 8.64C132.339 9.52 131.939 10.32 131.419 11C129.979 8.48 127.899 7.08 125.339 7.08C124.419 7.08 123.379 7.28 122.339 7.64C121.899 7.8 121.459 8 121.059 8.24C120.979 7.28 121.099 6.28 121.379 5.32C122.259 2.28 124.779 0.159999 127.499 0.159999C127.979 0.159999 128.459 0.239998 128.939 0.399998C130.419 0.839997 131.619 1.92 132.299 3.44ZM130.619 11.96C129.459 13.08 127.979 13.76 126.459 13.76C125.979 13.76 125.499 13.68 125.019 13.56C123.179 13 121.819 11.44 121.299 9.48C121.739 9.16 122.179 8.92 122.699 8.72C123.659 8.4 124.539 8.24 125.339 8.24C127.899 8.24 129.539 9.88 130.619 11.96ZM132.459 19.96C132.939 28.64 129.979 37.52 126.459 37.88C126.339 37.88 126.259 37.92 126.139 37.92C122.979 37.92 119.619 32.28 118.379 24.84C117.459 19.36 117.819 13.4 120.379 10.4C121.099 12.44 122.619 14.04 124.699 14.68C125.259 14.84 125.859 14.92 126.459 14.92C128.179 14.92 129.779 14.24 131.099 13.08C132.139 15.68 132.379 18.6 132.459 19.96ZM159.672 6.32C160.872 9.32 159.592 13.68 157.712 16C156.712 17.24 155.272 17.84 153.512 17.84C151.312 17.84 149.312 16.88 149.272 16.88C149.032 16.76 148.752 16.8 148.592 17C148.392 17.2 148.392 17.48 148.552 17.72C148.552 17.76 150.632 20.96 153.152 28.32C153.632 29.8 153.512 31.08 152.712 32.16C151.552 33.76 148.952 34.84 146.112 34.84C143.392 34.84 141.072 33.84 140.112 32.28C137.072 27.48 141.192 17.96 141.232 17.84C141.312 17.64 141.272 17.4 141.112 17.24C141.032 17.12 140.872 17.04 140.712 17.04C140.632 17.04 140.592 17.04 140.512 17.04C139.432 17.4 138.512 17.56 137.712 17.56C136.672 17.56 135.872 17.28 135.272 16.64C133.792 15.04 133.872 11.36 134.112 7.96C134.432 3.64 141.232 2.76 146.912 2.76C150.152 2.76 153.312 3.04 155.392 3.28C157.512 3.56 158.992 4.56 159.672 6.32Z" fill="white"/>
</svg>
